<svg viewBox="0 0 957 493" fill="none" xmlns="http://www.w3.org/2000/svg">
  <path d="M79.305 223.83H0.650879L36.9857 0.904785H114.144C136.158 0.904785 154.433 5.47649 168.966 14.6199C183.572 23.7633 193.866 36.8616 199.851 53.9148C205.836 70.8954 206.904 91.1778 203.057 114.762C199.352 137.548 191.979 157.105 180.936 173.432C169.893 189.687 155.751 202.169 138.509 210.877C121.268 219.512 101.533 223.83 79.305 223.83ZM53.5501 183.446H81.9767C95.7269 183.446 107.767 180.834 118.098 175.609C128.499 170.384 137.013 162.329 143.639 151.444C150.336 140.559 155.074 126.627 157.852 109.646C160.488 93.5362 160.31 80.4742 157.318 70.46C154.397 60.3732 148.733 53.0077 140.326 48.3634C131.919 43.6466 120.876 41.2882 107.197 41.2882H76.7402L53.5501 183.446Z" fill="white"/>
  <path d="M293.119 227.095C276.306 227.095 262.377 223.612 251.334 216.646C240.291 209.607 232.526 199.665 228.037 186.821C223.62 173.904 222.872 158.629 225.793 140.995C228.643 123.797 234.378 108.703 242.999 95.7132C251.69 82.7238 262.591 72.6007 275.7 65.344C288.809 58.0874 303.414 54.459 319.515 54.459C330.345 54.459 340.141 56.2369 348.904 59.7927C357.738 63.2759 365.076 68.5732 370.918 75.6848C376.76 82.7238 380.75 91.5406 382.888 102.135C385.096 112.73 385.061 125.139 382.781 139.362L380.75 152.098H242.251L246.632 123.361H342.385C343.454 116.685 343.026 110.771 341.103 105.619C339.179 100.466 335.973 96.4389 331.484 93.5362C326.996 90.561 321.475 89.0733 314.92 89.0733C308.223 89.0733 301.954 90.7424 296.112 94.0805C290.269 97.4185 285.354 101.809 281.364 107.251C277.445 112.621 274.916 118.463 273.776 124.776L268.754 153.295C267.329 162.075 267.614 169.368 269.608 175.174C271.675 180.979 275.237 185.333 280.295 188.236C285.354 191.066 291.766 192.481 299.531 192.481C304.59 192.481 309.327 191.755 313.745 190.304C318.233 188.853 322.223 186.712 325.714 183.882C329.205 180.979 332.054 177.387 334.263 173.106L375.834 175.936C371.987 186.24 366.145 195.238 358.308 202.931C350.471 210.55 341.031 216.501 329.988 220.782C319.017 224.991 306.727 227.095 293.119 227.095Z" fill="white"/>
  <path d="M574.874 56.636L490.129 223.83H438.832L408.803 56.636H455.183L469.717 176.262H471.427L524.967 56.636H574.874Z" fill="white"/>
  <path d="M571.668 223.83L608.003 0.904785H694.352C710.88 0.904785 724.452 4.13401 735.068 10.5924C745.755 16.9783 753.235 25.8677 757.51 37.2607C761.856 48.5811 762.853 61.6431 760.502 76.4467C758.08 91.3229 752.808 104.421 744.686 115.742C736.635 126.989 726.162 135.77 713.267 142.083C700.372 148.397 685.482 151.553 668.597 151.553H613.56L619.651 113.782H667.207C676.184 113.782 683.843 112.222 690.184 109.102C696.596 105.909 701.69 101.519 705.466 95.9309C709.242 90.2707 711.7 83.776 712.84 76.4467C714.051 68.9724 713.659 62.4776 711.664 56.9626C709.669 51.4475 706 47.1661 700.657 44.1183C695.385 40.9979 688.296 39.4377 679.39 39.4377H648.185L617.942 223.83H571.668Z" fill="white"/>
  <path d="M766.513 223.83L802.848 0.904785H889.197C905.726 0.904785 919.333 3.88002 930.02 9.83049C940.778 15.781 948.33 24.235 952.676 35.1926C957.093 46.0776 958.126 58.9219 955.775 73.7255C953.353 88.5291 948.116 101.228 940.066 111.823C932.086 122.418 921.684 130.582 908.86 136.314C896.108 141.975 881.324 144.805 864.511 144.805H806.696L813.108 106.925H863.335C872.169 106.925 879.721 105.691 885.991 103.224C892.26 100.757 897.212 97.0557 900.845 92.1212C904.55 87.1866 906.972 81.0547 908.112 73.7255C909.323 66.2511 908.896 60.0104 906.83 55.0033C904.764 49.9236 901.023 46.0776 895.609 43.4652C890.194 40.7802 883.07 39.4377 874.235 39.4377H843.03L812.787 223.83H766.513ZM901.166 122.381L939.104 223.83H888.021L851.259 122.381H901.166Z" fill="white"/>
  <path d="M174.45 484.204L28.9869 338.856C17.6613 327.539 17.6613 308.914 28.9869 297.597L174.45 152.249C185.776 140.933 204.416 140.933 215.742 152.249L361.205 297.597C372.53 308.914 372.53 327.539 361.205 338.856L215.742 484.204C212.91 487.033 209.607 489.155 206.186 490.569C206.068 490.569 184.36 490.687 184.36 490.687C180.703 489.272 177.282 487.033 174.45 484.204Z" fill="#4CAF50"/>
  <path d="M292.543 258.294C282.987 258.294 275.083 266.192 275.083 275.741C275.083 283.403 280.156 290.24 287.352 292.48V324.897C287.352 343.287 275.791 353.425 249.836 357.551C246.297 350.713 238.865 346.352 227.185 344.584H227.067C217.865 343.405 210.905 340.694 205.832 336.568V327.962C210.787 323.601 217.747 320.889 227.303 319.711H227.421C243.82 317.235 252.196 309.455 252.196 296.842V277.863C259.746 275.977 265.527 269.139 265.527 260.888C265.527 251.221 257.623 243.323 248.067 243.323C238.511 243.323 230.606 251.221 230.606 261.006C230.606 269.375 236.623 276.448 244.41 278.098V296.96C244.41 305.683 238.983 310.162 226.241 312.166C217.983 313.109 211.259 315.231 205.95 318.532V261.241C212.32 257.469 216.567 250.632 216.567 242.852C216.567 231.064 207.011 221.397 195.096 221.397C183.298 221.397 173.624 230.946 173.624 242.852C173.624 250.75 177.872 257.587 184.242 261.241V310.162C179.405 307.805 173.624 306.154 166.782 305.329C150.855 302.971 148.85 296.134 148.85 290.358V277.038C156.518 275.269 162.417 268.314 162.417 259.945C162.417 250.396 154.512 242.498 144.956 242.498C135.401 242.498 127.496 250.278 127.496 259.827C127.496 268.196 133.395 275.034 141.063 276.92V290.24C141.063 302.854 149.322 310.516 165.72 312.874C173.624 314.052 179.641 315.821 184.242 319.003V346.47C173.271 339.515 159.467 334.917 142.243 332.795C115.699 328.788 103.901 318.768 103.901 300.024V292.598C110.862 290.24 115.817 283.757 115.817 275.977C115.817 266.428 107.912 258.53 98.3563 258.53C88.8003 258.53 80.896 266.428 80.896 275.977C80.896 283.639 85.851 290.24 92.8115 292.598V300.024C92.8115 313.699 97.8844 324.426 108.03 331.852C115.699 337.629 126.434 341.401 140.709 343.523H140.827C159.939 345.998 174.096 351.421 184.36 359.908V490.992C191.321 493.704 199.225 493.586 206.186 490.875V432.287C211.141 428.044 217.983 425.45 227.421 424.272H227.539C243.938 421.796 252.314 414.016 252.314 401.403V398.573C257.387 396.923 261.162 392.09 261.162 386.549C261.162 381.009 257.387 376.058 252.314 374.526V368.396C265.763 366.156 276.027 362.384 283.459 356.843C293.605 349.417 298.678 338.69 298.678 325.015V292.48C305.049 290.005 309.886 283.521 309.886 275.859C309.886 271.261 308.116 266.9 304.931 263.481C301.627 260.18 297.262 258.294 292.543 258.294ZM236.859 261.006C236.859 254.876 241.814 249.925 247.831 249.925C253.966 249.925 258.802 254.876 258.802 261.006C258.802 267.135 253.848 271.969 247.831 271.969C241.932 271.969 236.859 266.9 236.859 261.006ZM144.721 270.79C138.704 270.79 133.749 265.839 133.749 259.827C133.749 253.697 138.704 248.864 144.721 248.864C150.737 248.864 155.692 253.815 155.692 259.827C155.692 265.839 150.619 270.79 144.721 270.79ZM98.1204 286.704C92.1036 286.704 87.1487 281.871 87.1487 275.741C87.1487 269.611 92.1036 264.778 98.1204 264.778C104.137 264.778 109.092 269.729 109.092 275.741C109.092 281.753 104.019 286.704 98.1204 286.704ZM194.86 257.587C186.602 257.587 179.877 250.868 179.877 242.616C179.877 234.247 186.602 227.527 194.86 227.527C203.118 227.527 209.843 234.247 209.843 242.498C209.843 250.75 203.118 257.587 194.86 257.587ZM205.714 345.998C211.141 349.063 217.747 351.185 225.887 352.246C233.438 353.425 238.511 355.429 241.224 358.847C227.067 361.441 215.152 365.802 205.714 372.05V345.998ZM244.174 374.526C239.101 376.176 235.325 381.009 235.325 386.549C235.325 392.326 239.101 397.041 244.174 398.573V401.403C244.056 410.126 238.747 414.605 226.005 416.609C217.865 417.552 211.259 419.674 205.95 422.857V385.842C215.152 377.708 227.657 372.404 244.174 369.575V374.526ZM292.543 286.822C286.409 286.822 281.572 281.871 281.572 275.859C281.572 269.847 286.527 264.896 292.543 264.896C295.493 264.896 298.324 266.075 300.448 268.079C302.571 270.2 303.515 272.912 303.515 275.741C303.515 281.871 298.56 286.822 292.543 286.822Z" fill="white"/>
</svg>
