<svg width="437" height="437" viewBox="0 0 437 437" fill="none" xmlns="http://www.w3.org/2000/svg">
  <path d="M192.664 426.032L10.6297 244.142C-3.54324 229.981 -3.54324 206.673 10.6297 192.511L192.664 10.6213C206.837 -3.54043 230.163 -3.54043 244.336 10.6213L426.37 192.511C440.543 206.673 440.543 229.981 426.37 244.142L244.336 426.032C240.793 429.572 236.659 432.228 232.378 433.998C232.23 433.998 205.065 434.145 205.065 434.145C200.489 432.375 196.207 429.572 192.664 426.032Z" fill="#4CAF50"/>
  <path d="M340.447 143.327C328.488 143.327 318.597 153.211 318.597 165.16C318.597 174.749 324.945 183.305 333.951 186.108V226.675C333.951 249.688 319.483 262.374 287.003 267.538C282.574 258.982 273.273 253.523 258.657 251.311H258.509C246.994 249.835 238.283 246.443 231.935 241.279V230.511C238.136 225.052 246.846 221.659 258.805 220.184H258.952C279.473 217.086 289.956 207.35 289.956 191.566V167.815C299.404 165.455 306.638 156.899 306.638 146.573C306.638 134.476 296.747 124.593 284.788 124.593C272.83 124.593 262.938 134.476 262.938 146.72C262.938 157.194 270.468 166.045 280.212 168.11V191.713C280.212 202.63 273.42 208.235 257.476 210.743C247.141 211.923 238.726 214.579 232.083 218.709V147.015C240.055 142.295 245.37 133.739 245.37 124.003C245.37 109.251 233.411 97.1543 218.5 97.1543C203.737 97.1543 191.631 109.103 191.631 124.003C191.631 133.886 196.945 142.442 204.918 147.015V208.235C198.865 205.285 191.631 203.22 183.068 202.187C163.137 199.237 160.627 190.681 160.627 183.452V166.783C170.223 164.57 177.605 155.866 177.605 145.393C177.605 133.444 167.714 123.56 155.755 123.56C143.797 123.56 133.905 133.296 133.905 145.245C133.905 155.719 141.287 164.275 150.883 166.635V183.305C150.883 199.089 161.218 208.678 181.739 211.628C191.631 213.103 199.16 215.316 204.918 219.299V253.671C191.188 244.967 173.914 239.214 152.36 236.559C119.142 231.543 104.378 219.004 104.378 195.549V186.255C113.089 183.305 119.289 175.191 119.289 165.455C119.289 153.506 109.398 143.622 97.4394 143.622C85.4809 143.622 75.5894 153.506 75.5894 165.455C75.5894 175.044 81.79 183.305 90.5005 186.255V195.549C90.5005 212.661 96.8488 226.085 109.545 235.379C119.142 242.607 132.577 247.328 150.44 249.983H150.588C174.505 253.081 192.221 259.867 205.065 270.488L205.065 434.528C213.776 437.921 223.667 437.773 232.378 434.38L232.378 361.064C238.579 355.753 247.141 352.508 258.952 351.033H259.1C279.621 347.935 290.103 338.199 290.103 322.414V318.874C296.452 316.809 301.176 310.76 301.176 303.827C301.176 296.894 296.452 290.698 290.103 288.78V281.109C306.934 278.306 319.778 273.586 329.079 266.652C341.776 257.359 348.124 243.935 348.124 226.823V186.108C356.096 183.01 362.149 174.896 362.149 165.308C362.149 159.554 359.935 154.096 355.949 149.818C351.815 145.688 346.352 143.327 340.447 143.327ZM270.763 146.72C270.763 139.049 276.964 132.854 284.493 132.854C292.17 132.854 298.223 139.049 298.223 146.72C298.223 154.391 292.022 160.44 284.493 160.44C277.111 160.44 270.763 154.096 270.763 146.72ZM155.46 158.964C147.931 158.964 141.73 152.769 141.73 145.245C141.73 137.574 147.931 131.526 155.46 131.526C162.989 131.526 169.19 137.722 169.19 145.245C169.19 152.769 162.842 158.964 155.46 158.964ZM97.1441 178.879C89.6147 178.879 83.414 172.831 83.414 165.16C83.414 157.489 89.6147 151.441 97.1441 151.441C104.673 151.441 110.874 157.637 110.874 165.16C110.874 172.684 104.526 178.879 97.1441 178.879ZM218.205 142.442C207.87 142.442 199.455 134.034 199.455 123.708C199.455 113.234 207.87 104.825 218.205 104.825C228.539 104.825 236.955 113.234 236.955 123.56C236.955 133.886 228.539 142.442 218.205 142.442ZM231.787 253.081C238.579 256.916 246.846 259.572 257.033 260.899C266.482 262.374 272.83 264.882 276.226 269.16C258.509 272.406 243.598 277.864 231.787 285.682V253.081ZM279.916 288.78C273.568 290.845 268.844 296.894 268.844 303.827C268.844 311.055 273.568 316.956 279.916 318.874V322.414C279.769 333.331 273.125 338.936 257.181 341.444C246.994 342.624 238.726 345.28 232.083 349.263V302.942C243.598 292.763 259.247 286.125 279.916 282.584V288.78ZM340.447 179.027C332.77 179.027 326.717 172.831 326.717 165.308C326.717 157.784 332.917 151.588 340.447 151.588C344.138 151.588 347.681 153.064 350.338 155.571C352.996 158.227 354.177 161.62 354.177 165.16C354.177 172.831 347.976 179.027 340.447 179.027Z" fill="white"/>
</svg>
